# xmcd
#
# Track frame offsets: 
#        150
#        18000
#        33555
#        51196
#        65382
#        83829
#        102233
#        116639
#        134306
#        151403
#        168357
#        185173
#        200300
#        215558
#        244381
#
# Disc length: 4478 seconds
#
# Revision: 1
# Processed by: cddbd v1.5.2PL0 Copyright (c) Steve Scherf et al.
# Submitted via: ExactAudioCopy v0.99pb4
#
DISCID=d0117c0f
DTITLE=Collin Raye - The Best Of Collin Raye - Direct Hits
DYEAR=1997
DGENRE=Gospel
TTITLE0=Little Rock
TTITLE1=I Think About You
TTITLE2=Not That Different
TTITLE3=What If Jesus Comes Back Like That
TTITLE4=If I Were You
TTITLE5=One Boy, One Girl
TTITLE6=In This Life
TTITLE7=A Bible And A Bus Ticket Home
TTITLE8=Love Remains
TTITLE9=What The Heart Wants
TTITLE10=The Gift
TTITLE11=Open Arms
TTITLE12=Little Red Rodeo
TTITLE13=Love, Me
TTITLE14=Multimedia Show
EXTD=
EXTT0=
EXTT1=
EXTT2=
EXTT3=
EXTT4=
EXTT5=
EXTT6=
EXTT7=
EXTT8=
EXTT9=
EXTT10=
EXTT11=
EXTT12=
EXTT13=
EXTT14=Runs under Win 3.x, Win95 and MAC
PLAYORDER=
